<mxfile host="app.diagrams.net" modified="2020-08-14T10:57:24.374Z" agent="5.0 (Windows NT 10.0; WOW64) AppleWebKit/537.36 (KHTML, like Gecko) Chrome/70.0.3538.25 Safari/537.36 Core/1.70.3775.400 QQBrowser/10.6.4208.400" etag="ZUtNesN6joiJEgqiN3Fa" version="13.6.2" type="github">
  <diagram id="hVP1Le8sTzmIoUoRDAnq" name="Page-1">
    <mxGraphModel dx="1381" dy="769" grid="1" gridSize="10" guides="1" tooltips="1" connect="1" arrows="1" fold="1" page="1" pageScale="1" pageWidth="827" pageHeight="1169" math="0" shadow="0">
      <root>
        <mxCell id="0" />
        <mxCell id="1" parent="0" />
        <mxCell id="XEBLtiGvCpJ2jnbF5ncU-4" style="edgeStyle=orthogonalEdgeStyle;rounded=0;orthogonalLoop=1;jettySize=auto;html=1;exitX=0.5;exitY=1;exitDx=0;exitDy=0;entryX=0.5;entryY=0;entryDx=0;entryDy=0;strokeWidth=2;" parent="1" source="XEBLtiGvCpJ2jnbF5ncU-1" target="XEBLtiGvCpJ2jnbF5ncU-2" edge="1">
          <mxGeometry relative="1" as="geometry" />
        </mxCell>
        <mxCell id="XEBLtiGvCpJ2jnbF5ncU-1" value="释放开始" style="ellipse;whiteSpace=wrap;html=1;aspect=fixed;strokeWidth=2;" parent="1" vertex="1">
          <mxGeometry x="350" y="30" width="80" height="80" as="geometry" />
        </mxCell>
        <mxCell id="XEBLtiGvCpJ2jnbF5ncU-8" style="edgeStyle=orthogonalEdgeStyle;rounded=0;orthogonalLoop=1;jettySize=auto;html=1;exitX=0.5;exitY=1;exitDx=0;exitDy=0;entryX=0.5;entryY=0;entryDx=0;entryDy=0;strokeWidth=2;" parent="1" source="XEBLtiGvCpJ2jnbF5ncU-2" target="XEBLtiGvCpJ2jnbF5ncU-6" edge="1">
          <mxGeometry relative="1" as="geometry" />
        </mxCell>
        <mxCell id="XEBLtiGvCpJ2jnbF5ncU-2" value="根据传入的SHM_MID释放到相应的SHM_UNIT，并将其放入所在SHM_PAGE的空闲链表中" style="rounded=0;whiteSpace=wrap;html=1;strokeWidth=2;" parent="1" vertex="1">
          <mxGeometry x="305" y="160" width="170" height="60" as="geometry" />
        </mxCell>
        <mxCell id="wJZb20HWOkz9L2VV14JO-2" style="edgeStyle=orthogonalEdgeStyle;rounded=0;orthogonalLoop=1;jettySize=auto;html=1;exitX=0.5;exitY=1;exitDx=0;exitDy=0;strokeWidth=2;" parent="1" source="XEBLtiGvCpJ2jnbF5ncU-6" target="wJZb20HWOkz9L2VV14JO-1" edge="1">
          <mxGeometry relative="1" as="geometry" />
        </mxCell>
        <mxCell id="ncePUR6nF9aSfhuZWN1H-1" style="edgeStyle=orthogonalEdgeStyle;rounded=0;orthogonalLoop=1;jettySize=auto;html=1;exitX=1;exitY=0.5;exitDx=0;exitDy=0;entryX=1;entryY=0.5;entryDx=0;entryDy=0;strokeWidth=2;" edge="1" parent="1" source="XEBLtiGvCpJ2jnbF5ncU-6" target="XEBLtiGvCpJ2jnbF5ncU-14">
          <mxGeometry relative="1" as="geometry">
            <Array as="points">
              <mxPoint x="820" y="315" />
              <mxPoint x="820" y="980" />
            </Array>
          </mxGeometry>
        </mxCell>
        <mxCell id="XEBLtiGvCpJ2jnbF5ncU-6" value="当前SHM_PAGE&lt;br&gt;是否全空？" style="rhombus;whiteSpace=wrap;html=1;strokeWidth=2;" parent="1" vertex="1">
          <mxGeometry x="312.5" y="280" width="155" height="70" as="geometry" />
        </mxCell>
        <mxCell id="XEBLtiGvCpJ2jnbF5ncU-14" value="释放成功" style="ellipse;whiteSpace=wrap;html=1;aspect=fixed;strokeWidth=2;align=center;" parent="1" vertex="1">
          <mxGeometry x="350" y="940" width="80" height="80" as="geometry" />
        </mxCell>
        <mxCell id="ncePUR6nF9aSfhuZWN1H-2" style="edgeStyle=orthogonalEdgeStyle;rounded=0;orthogonalLoop=1;jettySize=auto;html=1;exitX=1;exitY=0.5;exitDx=0;exitDy=0;strokeWidth=2;" edge="1" parent="1" source="wJZb20HWOkz9L2VV14JO-1" target="ncePUR6nF9aSfhuZWN1H-3">
          <mxGeometry relative="1" as="geometry">
            <mxPoint x="630" y="465" as="targetPoint" />
          </mxGeometry>
        </mxCell>
        <mxCell id="wJZb20HWOkz9L2VV14JO-1" value="当前SHM_PAGE是否不是当&lt;br&gt;前正在分配的SHM_PAGE？" style="rhombus;whiteSpace=wrap;html=1;strokeWidth=2;" parent="1" vertex="1">
          <mxGeometry x="298.25" y="430" width="183.75" height="70" as="geometry" />
        </mxCell>
        <mxCell id="wJZb20HWOkz9L2VV14JO-20" style="edgeStyle=orthogonalEdgeStyle;rounded=0;orthogonalLoop=1;jettySize=auto;html=1;exitX=0.5;exitY=1;exitDx=0;exitDy=0;entryX=0.5;entryY=0;entryDx=0;entryDy=0;strokeWidth=2;" parent="1" source="wJZb20HWOkz9L2VV14JO-13" target="XEBLtiGvCpJ2jnbF5ncU-14" edge="1">
          <mxGeometry relative="1" as="geometry" />
        </mxCell>
        <mxCell id="wJZb20HWOkz9L2VV14JO-13" value="从SHM_PAGE中空闲链表中拿出未分配的SHM_UNIT返回出去" style="rounded=0;whiteSpace=wrap;html=1;strokeWidth=2;" parent="1" vertex="1">
          <mxGeometry x="330.13" y="690" width="120" height="60" as="geometry" />
        </mxCell>
        <mxCell id="ncePUR6nF9aSfhuZWN1H-4" style="edgeStyle=orthogonalEdgeStyle;rounded=0;orthogonalLoop=1;jettySize=auto;html=1;exitX=0.5;exitY=1;exitDx=0;exitDy=0;strokeWidth=2;" edge="1" parent="1" source="ncePUR6nF9aSfhuZWN1H-3">
          <mxGeometry relative="1" as="geometry">
            <mxPoint x="630" y="980" as="targetPoint" />
          </mxGeometry>
        </mxCell>
        <mxCell id="ncePUR6nF9aSfhuZWN1H-3" value="从SHM_PAGE中空闲链表中拿出未分配的SHM_UNIT返回出去" style="rounded=0;whiteSpace=wrap;html=1;strokeWidth=2;" vertex="1" parent="1">
          <mxGeometry x="570" y="650" width="120" height="60" as="geometry" />
        </mxCell>
        <mxCell id="ncePUR6nF9aSfhuZWN1H-5" value="如果当前的正在分配的SHM_PAGE的使用率小于一半" style="rhombus;whiteSpace=wrap;html=1;strokeWidth=2;" vertex="1" parent="1">
          <mxGeometry x="298.13" y="560" width="181.87" height="70" as="geometry" />
        </mxCell>
      </root>
    </mxGraphModel>
  </diagram>
</mxfile>
